<mxfile host="Electron" agent="Mozilla/5.0 (X11; Linux x86_64) AppleWebKit/537.36 (KHTML, like Gecko) draw.io/27.0.9 Chrome/134.0.6998.205 Electron/35.4.0 Safari/537.36" version="27.0.9">
  <diagram name="Page-1" id="cmg6hp7CtFFWTusoUtM8">
    <mxGraphModel dx="2994" dy="1371" grid="0" gridSize="10" guides="1" tooltips="1" connect="1" arrows="1" fold="1" page="0" pageScale="1" pageWidth="900" pageHeight="1600" math="0" shadow="0">
      <root>
        <mxCell id="0" />
        <mxCell id="1" parent="0" />
        <mxCell id="Uhv4Gsx6fWczVrR9hCtR-1" value="Monitoring&lt;div&gt;Engine&lt;/div&gt;" style="rounded=1;whiteSpace=wrap;html=1;" vertex="1" parent="1">
          <mxGeometry x="15" y="387" width="120" height="60" as="geometry" />
        </mxCell>
        <mxCell id="Uhv4Gsx6fWczVrR9hCtR-8" style="edgeStyle=orthogonalEdgeStyle;rounded=0;orthogonalLoop=1;jettySize=auto;html=1;entryX=0.999;entryY=0.689;entryDx=0;entryDy=0;entryPerimeter=0;startArrow=classic;startFill=1;endArrow=none;" edge="1" parent="1" source="Uhv4Gsx6fWczVrR9hCtR-3" target="Uhv4Gsx6fWczVrR9hCtR-5">
          <mxGeometry relative="1" as="geometry" />
        </mxCell>
        <mxCell id="Uhv4Gsx6fWczVrR9hCtR-25" style="edgeStyle=orthogonalEdgeStyle;shape=connector;rounded=0;orthogonalLoop=1;jettySize=auto;html=1;strokeColor=default;align=center;verticalAlign=middle;fontFamily=Helvetica;fontSize=11;fontColor=default;labelBackgroundColor=default;endArrow=classic;startArrow=classic;startFill=1;" edge="1" parent="1" source="Uhv4Gsx6fWczVrR9hCtR-3">
          <mxGeometry relative="1" as="geometry">
            <mxPoint x="167.28571428571422" y="555" as="targetPoint" />
          </mxGeometry>
        </mxCell>
        <mxCell id="Uhv4Gsx6fWczVrR9hCtR-3" value="RX Demod" style="rounded=1;whiteSpace=wrap;html=1;" vertex="1" parent="1">
          <mxGeometry x="15" y="525" width="120" height="60" as="geometry" />
        </mxCell>
        <mxCell id="Uhv4Gsx6fWczVrR9hCtR-4" value="TX Mod" style="rounded=1;whiteSpace=wrap;html=1;" vertex="1" parent="1">
          <mxGeometry x="15" y="318" width="120" height="60" as="geometry" />
        </mxCell>
        <mxCell id="Uhv4Gsx6fWczVrR9hCtR-14" style="edgeStyle=orthogonalEdgeStyle;rounded=0;orthogonalLoop=1;jettySize=auto;html=1;entryX=1;entryY=0.5;entryDx=0;entryDy=0;" edge="1" parent="1" source="Uhv4Gsx6fWczVrR9hCtR-5" target="Uhv4Gsx6fWczVrR9hCtR-13">
          <mxGeometry relative="1" as="geometry" />
        </mxCell>
        <mxCell id="Uhv4Gsx6fWczVrR9hCtR-5" value="SDR&#39;s" style="shape=ext;double=1;rounded=1;whiteSpace=wrap;html=1;" vertex="1" parent="1">
          <mxGeometry x="-220" y="465" width="120" height="80" as="geometry" />
        </mxCell>
        <mxCell id="Uhv4Gsx6fWczVrR9hCtR-17" style="edgeStyle=orthogonalEdgeStyle;rounded=0;orthogonalLoop=1;jettySize=auto;html=1;entryX=0.002;entryY=0.314;entryDx=0;entryDy=0;entryPerimeter=0;" edge="1" parent="1" source="Uhv4Gsx6fWczVrR9hCtR-7" target="Uhv4Gsx6fWczVrR9hCtR-1">
          <mxGeometry relative="1" as="geometry" />
        </mxCell>
        <mxCell id="Uhv4Gsx6fWczVrR9hCtR-7" value="Motor" style="shape=ext;double=1;rounded=1;whiteSpace=wrap;html=1;" vertex="1" parent="1">
          <mxGeometry x="-408" y="341" width="120" height="80" as="geometry" />
        </mxCell>
        <mxCell id="Uhv4Gsx6fWczVrR9hCtR-9" style="edgeStyle=orthogonalEdgeStyle;rounded=0;orthogonalLoop=1;jettySize=auto;html=1;entryX=0.994;entryY=0.361;entryDx=0;entryDy=0;entryPerimeter=0;" edge="1" parent="1" source="Uhv4Gsx6fWczVrR9hCtR-4" target="Uhv4Gsx6fWczVrR9hCtR-5">
          <mxGeometry relative="1" as="geometry" />
        </mxCell>
        <mxCell id="Uhv4Gsx6fWczVrR9hCtR-15" style="edgeStyle=orthogonalEdgeStyle;rounded=0;orthogonalLoop=1;jettySize=auto;html=1;" edge="1" parent="1" source="Uhv4Gsx6fWczVrR9hCtR-12">
          <mxGeometry relative="1" as="geometry">
            <mxPoint x="-290" y="364" as="targetPoint" />
            <Array as="points">
              <mxPoint x="-76" y="485" />
              <mxPoint x="-76" y="364" />
              <mxPoint x="-288" y="364" />
            </Array>
          </mxGeometry>
        </mxCell>
        <mxCell id="Uhv4Gsx6fWczVrR9hCtR-12" value="Motor Control" style="rounded=1;whiteSpace=wrap;html=1;" vertex="1" parent="1">
          <mxGeometry x="15" y="455" width="120" height="60" as="geometry" />
        </mxCell>
        <mxCell id="Uhv4Gsx6fWczVrR9hCtR-18" style="edgeStyle=orthogonalEdgeStyle;rounded=0;orthogonalLoop=1;jettySize=auto;html=1;exitX=0.5;exitY=0;exitDx=0;exitDy=0;entryX=0;entryY=0.75;entryDx=0;entryDy=0;" edge="1" parent="1" source="Uhv4Gsx6fWczVrR9hCtR-13" target="Uhv4Gsx6fWczVrR9hCtR-1">
          <mxGeometry relative="1" as="geometry" />
        </mxCell>
        <mxCell id="Uhv4Gsx6fWczVrR9hCtR-13" value="LNA/PA" style="shape=ext;double=1;rounded=1;whiteSpace=wrap;html=1;" vertex="1" parent="1">
          <mxGeometry x="-408" y="465" width="120" height="80" as="geometry" />
        </mxCell>
        <mxCell id="Uhv4Gsx6fWczVrR9hCtR-20" value="Interface&lt;div&gt;de&lt;/div&gt;&lt;div&gt;Rede&lt;/div&gt;" style="rounded=1;whiteSpace=wrap;html=1;fontFamily=Helvetica;fontSize=11;fontColor=default;labelBackgroundColor=default;" vertex="1" parent="1">
          <mxGeometry x="168" y="189" width="120" height="518" as="geometry" />
        </mxCell>
        <mxCell id="Uhv4Gsx6fWczVrR9hCtR-21" value="&lt;font style=&quot;font-size: 40px;&quot;&gt;GroundStation&lt;/font&gt;" style="text;html=1;align=center;verticalAlign=middle;resizable=0;points=[];autosize=1;strokeColor=none;fillColor=none;fontFamily=Helvetica;fontSize=11;fontColor=default;labelBackgroundColor=default;" vertex="1" parent="1">
          <mxGeometry x="-258" y="714" width="276" height="60" as="geometry" />
        </mxCell>
        <mxCell id="Uhv4Gsx6fWczVrR9hCtR-26" style="edgeStyle=orthogonalEdgeStyle;shape=connector;rounded=0;orthogonalLoop=1;jettySize=auto;html=1;entryX=0.013;entryY=0.573;entryDx=0;entryDy=0;entryPerimeter=0;strokeColor=default;align=center;verticalAlign=middle;fontFamily=Helvetica;fontSize=11;fontColor=default;labelBackgroundColor=default;endArrow=classic;startArrow=classic;startFill=1;" edge="1" parent="1" source="Uhv4Gsx6fWczVrR9hCtR-12" target="Uhv4Gsx6fWczVrR9hCtR-20">
          <mxGeometry relative="1" as="geometry" />
        </mxCell>
        <mxCell id="Uhv4Gsx6fWczVrR9hCtR-28" style="edgeStyle=orthogonalEdgeStyle;shape=connector;rounded=0;orthogonalLoop=1;jettySize=auto;html=1;entryX=0.004;entryY=0.44;entryDx=0;entryDy=0;entryPerimeter=0;strokeColor=default;align=center;verticalAlign=middle;fontFamily=Helvetica;fontSize=11;fontColor=default;labelBackgroundColor=default;endArrow=classic;startArrow=classic;startFill=1;" edge="1" parent="1" source="Uhv4Gsx6fWczVrR9hCtR-1" target="Uhv4Gsx6fWczVrR9hCtR-20">
          <mxGeometry relative="1" as="geometry" />
        </mxCell>
        <mxCell id="Uhv4Gsx6fWczVrR9hCtR-29" style="edgeStyle=orthogonalEdgeStyle;shape=connector;rounded=0;orthogonalLoop=1;jettySize=auto;html=1;entryX=-0.001;entryY=0.307;entryDx=0;entryDy=0;entryPerimeter=0;strokeColor=default;align=center;verticalAlign=middle;fontFamily=Helvetica;fontSize=11;fontColor=default;labelBackgroundColor=default;endArrow=classic;startArrow=classic;startFill=1;" edge="1" parent="1" source="Uhv4Gsx6fWczVrR9hCtR-4" target="Uhv4Gsx6fWczVrR9hCtR-20">
          <mxGeometry relative="1" as="geometry" />
        </mxCell>
        <mxCell id="Uhv4Gsx6fWczVrR9hCtR-30" value="&lt;font style=&quot;font-size: 40px;&quot;&gt;Sala de Controle&lt;/font&gt;&lt;div&gt;&lt;br&gt;&lt;/div&gt;" style="text;html=1;align=center;verticalAlign=middle;resizable=0;points=[];autosize=1;strokeColor=none;fillColor=none;fontFamily=Helvetica;fontSize=11;fontColor=default;labelBackgroundColor=default;" vertex="1" parent="1">
          <mxGeometry x="466" y="716" width="316" height="73" as="geometry" />
        </mxCell>
        <mxCell id="Uhv4Gsx6fWczVrR9hCtR-50" style="edgeStyle=orthogonalEdgeStyle;shape=connector;rounded=0;orthogonalLoop=1;jettySize=auto;html=1;strokeColor=default;align=center;verticalAlign=middle;fontFamily=Helvetica;fontSize=11;fontColor=default;labelBackgroundColor=default;endArrow=classic;startArrow=classic;startFill=1;" edge="1" parent="1" source="Uhv4Gsx6fWczVrR9hCtR-31">
          <mxGeometry relative="1" as="geometry">
            <mxPoint x="554" y="615" as="targetPoint" />
          </mxGeometry>
        </mxCell>
        <mxCell id="Uhv4Gsx6fWczVrR9hCtR-31" value="Data Link&lt;div&gt;Decoder&lt;/div&gt;" style="rounded=1;whiteSpace=wrap;html=1;" vertex="1" parent="1">
          <mxGeometry x="379" y="585" width="120" height="60" as="geometry" />
        </mxCell>
        <mxCell id="Uhv4Gsx6fWczVrR9hCtR-32" value="Data Link&lt;div&gt;Encoder&lt;/div&gt;" style="rounded=1;whiteSpace=wrap;html=1;" vertex="1" parent="1">
          <mxGeometry x="379" y="258" width="120" height="60" as="geometry" />
        </mxCell>
        <mxCell id="Uhv4Gsx6fWczVrR9hCtR-33" style="edgeStyle=orthogonalEdgeStyle;shape=connector;rounded=0;orthogonalLoop=1;jettySize=auto;html=1;entryX=0.983;entryY=0.701;entryDx=0;entryDy=0;entryPerimeter=0;strokeColor=default;align=center;verticalAlign=middle;fontFamily=Helvetica;fontSize=11;fontColor=default;labelBackgroundColor=default;endArrow=none;startFill=1;startArrow=classic;" edge="1" parent="1" source="Uhv4Gsx6fWczVrR9hCtR-31" target="Uhv4Gsx6fWczVrR9hCtR-20">
          <mxGeometry relative="1" as="geometry" />
        </mxCell>
        <mxCell id="Uhv4Gsx6fWczVrR9hCtR-34" style="edgeStyle=orthogonalEdgeStyle;shape=connector;rounded=0;orthogonalLoop=1;jettySize=auto;html=1;entryX=1.008;entryY=0.299;entryDx=0;entryDy=0;entryPerimeter=0;strokeColor=default;align=center;verticalAlign=middle;fontFamily=Helvetica;fontSize=11;fontColor=default;labelBackgroundColor=default;endArrow=classic;" edge="1" parent="1" source="Uhv4Gsx6fWczVrR9hCtR-32" target="Uhv4Gsx6fWczVrR9hCtR-20">
          <mxGeometry relative="1" as="geometry" />
        </mxCell>
        <mxCell id="Uhv4Gsx6fWczVrR9hCtR-37" value="ZMQ Pub/Sub" style="edgeLabel;html=1;align=center;verticalAlign=middle;resizable=0;points=[];fontFamily=Helvetica;fontSize=11;fontColor=default;labelBackgroundColor=default;" vertex="1" connectable="0" parent="Uhv4Gsx6fWczVrR9hCtR-34">
          <mxGeometry x="-0.1276" relative="1" as="geometry">
            <mxPoint as="offset" />
          </mxGeometry>
        </mxCell>
        <mxCell id="Uhv4Gsx6fWczVrR9hCtR-36" value="Gpredict" style="rounded=1;whiteSpace=wrap;html=1;" vertex="1" parent="1">
          <mxGeometry x="379" y="502" width="120" height="60" as="geometry" />
        </mxCell>
        <mxCell id="Uhv4Gsx6fWczVrR9hCtR-38" value="ZMQ Pub/Sub" style="edgeLabel;html=1;align=center;verticalAlign=middle;resizable=0;points=[];fontFamily=Helvetica;fontSize=11;fontColor=default;labelBackgroundColor=default;" vertex="1" connectable="0" parent="1">
          <mxGeometry x="354" y="603" as="geometry">
            <mxPoint x="-17" y="-22" as="offset" />
          </mxGeometry>
        </mxCell>
        <mxCell id="Uhv4Gsx6fWczVrR9hCtR-39" style="edgeStyle=orthogonalEdgeStyle;shape=connector;rounded=0;orthogonalLoop=1;jettySize=auto;html=1;entryX=0.985;entryY=0.572;entryDx=0;entryDy=0;entryPerimeter=0;strokeColor=default;align=center;verticalAlign=middle;fontFamily=Helvetica;fontSize=11;fontColor=default;labelBackgroundColor=default;endArrow=classic;" edge="1" parent="1" source="Uhv4Gsx6fWczVrR9hCtR-36" target="Uhv4Gsx6fWczVrR9hCtR-20">
          <mxGeometry relative="1" as="geometry" />
        </mxCell>
        <mxCell id="Uhv4Gsx6fWczVrR9hCtR-44" value="TCP?" style="edgeLabel;html=1;align=center;verticalAlign=middle;resizable=0;points=[];fontFamily=Helvetica;fontSize=11;fontColor=default;labelBackgroundColor=default;" vertex="1" connectable="0" parent="Uhv4Gsx6fWczVrR9hCtR-39">
          <mxGeometry x="0.0349" y="2" relative="1" as="geometry">
            <mxPoint as="offset" />
          </mxGeometry>
        </mxCell>
        <mxCell id="Uhv4Gsx6fWczVrR9hCtR-40" value="Spectrum&lt;div&gt;Monitoring&lt;/div&gt;" style="rounded=1;whiteSpace=wrap;html=1;" vertex="1" parent="1">
          <mxGeometry x="379" y="341" width="120" height="60" as="geometry" />
        </mxCell>
        <mxCell id="Uhv4Gsx6fWczVrR9hCtR-41" style="edgeStyle=orthogonalEdgeStyle;shape=connector;rounded=0;orthogonalLoop=1;jettySize=auto;html=1;entryX=0.992;entryY=0.381;entryDx=0;entryDy=0;entryPerimeter=0;strokeColor=default;align=center;verticalAlign=middle;fontFamily=Helvetica;fontSize=11;fontColor=default;labelBackgroundColor=default;endArrow=none;endFill=1;startArrow=classic;startFill=0;" edge="1" parent="1" source="Uhv4Gsx6fWczVrR9hCtR-40" target="Uhv4Gsx6fWczVrR9hCtR-20">
          <mxGeometry relative="1" as="geometry" />
        </mxCell>
        <mxCell id="Uhv4Gsx6fWczVrR9hCtR-46" value="ZMQ" style="edgeLabel;html=1;align=center;verticalAlign=middle;resizable=0;points=[];fontFamily=Helvetica;fontSize=11;fontColor=default;labelBackgroundColor=default;" vertex="1" connectable="0" parent="Uhv4Gsx6fWczVrR9hCtR-41">
          <mxGeometry x="-0.0563" y="-2" relative="1" as="geometry">
            <mxPoint as="offset" />
          </mxGeometry>
        </mxCell>
        <mxCell id="Uhv4Gsx6fWczVrR9hCtR-48" style="edgeStyle=orthogonalEdgeStyle;shape=connector;rounded=0;orthogonalLoop=1;jettySize=auto;html=1;strokeColor=default;align=center;verticalAlign=middle;fontFamily=Helvetica;fontSize=11;fontColor=default;labelBackgroundColor=default;endArrow=classic;entryX=-0.006;entryY=0.506;entryDx=0;entryDy=0;entryPerimeter=0;startArrow=classic;startFill=1;" edge="1" parent="1" source="Uhv4Gsx6fWczVrR9hCtR-42" target="Uhv4Gsx6fWczVrR9hCtR-47">
          <mxGeometry relative="1" as="geometry">
            <mxPoint x="546.166666666667" y="451" as="targetPoint" />
          </mxGeometry>
        </mxCell>
        <mxCell id="Uhv4Gsx6fWczVrR9hCtR-42" value="Station&amp;nbsp;&lt;div&gt;Equipament&lt;/div&gt;&lt;div&gt;Monitoring&lt;/div&gt;" style="rounded=1;whiteSpace=wrap;html=1;" vertex="1" parent="1">
          <mxGeometry x="379" y="421" width="120" height="60" as="geometry" />
        </mxCell>
        <mxCell id="Uhv4Gsx6fWczVrR9hCtR-43" style="edgeStyle=orthogonalEdgeStyle;shape=connector;rounded=0;orthogonalLoop=1;jettySize=auto;html=1;entryX=0.999;entryY=0.464;entryDx=0;entryDy=0;entryPerimeter=0;strokeColor=default;align=center;verticalAlign=middle;fontFamily=Helvetica;fontSize=11;fontColor=default;labelBackgroundColor=default;endArrow=classic;startArrow=classic;startFill=1;" edge="1" parent="1" source="Uhv4Gsx6fWczVrR9hCtR-42" target="Uhv4Gsx6fWczVrR9hCtR-20">
          <mxGeometry relative="1" as="geometry" />
        </mxCell>
        <mxCell id="Uhv4Gsx6fWczVrR9hCtR-45" value="ZMQ" style="edgeLabel;html=1;align=center;verticalAlign=middle;resizable=0;points=[];fontFamily=Helvetica;fontSize=11;fontColor=default;labelBackgroundColor=default;" vertex="1" connectable="0" parent="Uhv4Gsx6fWczVrR9hCtR-43">
          <mxGeometry x="0.0707" relative="1" as="geometry">
            <mxPoint y="4" as="offset" />
          </mxGeometry>
        </mxCell>
        <mxCell id="Uhv4Gsx6fWczVrR9hCtR-47" value="Interface&lt;div&gt;de&lt;/div&gt;&lt;div&gt;Rede&lt;/div&gt;" style="rounded=1;whiteSpace=wrap;html=1;fontFamily=Helvetica;fontSize=11;fontColor=default;labelBackgroundColor=default;" vertex="1" parent="1">
          <mxGeometry x="555" y="189" width="120" height="518" as="geometry" />
        </mxCell>
        <mxCell id="Uhv4Gsx6fWczVrR9hCtR-49" style="edgeStyle=orthogonalEdgeStyle;shape=connector;rounded=0;orthogonalLoop=1;jettySize=auto;html=1;entryX=0.015;entryY=0.662;entryDx=0;entryDy=0;entryPerimeter=0;strokeColor=default;align=center;verticalAlign=middle;fontFamily=Helvetica;fontSize=11;fontColor=default;labelBackgroundColor=default;endArrow=classic;startArrow=classic;startFill=1;" edge="1" parent="1" source="Uhv4Gsx6fWczVrR9hCtR-36" target="Uhv4Gsx6fWczVrR9hCtR-47">
          <mxGeometry relative="1" as="geometry" />
        </mxCell>
        <mxCell id="Uhv4Gsx6fWczVrR9hCtR-51" style="edgeStyle=orthogonalEdgeStyle;shape=connector;rounded=0;orthogonalLoop=1;jettySize=auto;html=1;entryX=-0.008;entryY=0.351;entryDx=0;entryDy=0;entryPerimeter=0;strokeColor=default;align=center;verticalAlign=middle;fontFamily=Helvetica;fontSize=11;fontColor=default;labelBackgroundColor=default;endArrow=classic;startArrow=classic;startFill=1;" edge="1" parent="1" source="Uhv4Gsx6fWczVrR9hCtR-40" target="Uhv4Gsx6fWczVrR9hCtR-47">
          <mxGeometry relative="1" as="geometry" />
        </mxCell>
        <mxCell id="Uhv4Gsx6fWczVrR9hCtR-52" style="edgeStyle=orthogonalEdgeStyle;shape=connector;rounded=0;orthogonalLoop=1;jettySize=auto;html=1;entryX=0.003;entryY=0.191;entryDx=0;entryDy=0;entryPerimeter=0;strokeColor=default;align=center;verticalAlign=middle;fontFamily=Helvetica;fontSize=11;fontColor=default;labelBackgroundColor=default;endArrow=classic;startArrow=classic;startFill=1;" edge="1" parent="1" source="Uhv4Gsx6fWczVrR9hCtR-32" target="Uhv4Gsx6fWczVrR9hCtR-47">
          <mxGeometry relative="1" as="geometry" />
        </mxCell>
        <mxCell id="Uhv4Gsx6fWczVrR9hCtR-53" value="" style="rounded=1;whiteSpace=wrap;html=1;fontFamily=Helvetica;fontSize=11;labelBackgroundColor=default;dashed=1;dashPattern=12 12;glass=1;shadow=0;fillColor=none;strokeColor=#A680B8;fontColor=#ffffff;" vertex="1" parent="1">
          <mxGeometry x="-504" y="140" width="704" height="634" as="geometry" />
        </mxCell>
        <mxCell id="Uhv4Gsx6fWczVrR9hCtR-55" value="Telemetry&lt;div&gt;Dashboards&lt;/div&gt;" style="rounded=1;whiteSpace=wrap;html=1;" vertex="1" parent="1">
          <mxGeometry x="764" y="500" width="120" height="60" as="geometry" />
        </mxCell>
        <mxCell id="Uhv4Gsx6fWczVrR9hCtR-62" style="edgeStyle=orthogonalEdgeStyle;shape=connector;rounded=0;orthogonalLoop=1;jettySize=auto;html=1;exitX=0;exitY=0.5;exitDx=0;exitDy=0;strokeColor=default;align=center;verticalAlign=middle;fontFamily=Helvetica;fontSize=11;fontColor=default;labelBackgroundColor=default;endArrow=classic;startArrow=classic;startFill=1;" edge="1" parent="1" source="Uhv4Gsx6fWczVrR9hCtR-57">
          <mxGeometry relative="1" as="geometry">
            <mxPoint x="675.8076923076922" y="447.0769230769231" as="targetPoint" />
          </mxGeometry>
        </mxCell>
        <mxCell id="Uhv4Gsx6fWczVrR9hCtR-66" value="ZMQ&lt;div&gt;Pub/Sub&lt;/div&gt;" style="edgeLabel;html=1;align=center;verticalAlign=middle;resizable=0;points=[];fontFamily=Helvetica;fontSize=11;fontColor=default;labelBackgroundColor=default;" vertex="1" connectable="0" parent="Uhv4Gsx6fWczVrR9hCtR-62">
          <mxGeometry x="-0.0621" y="1" relative="1" as="geometry">
            <mxPoint as="offset" />
          </mxGeometry>
        </mxCell>
        <mxCell id="Uhv4Gsx6fWczVrR9hCtR-57" value="SLP&lt;div&gt;Server&lt;/div&gt;" style="rounded=1;whiteSpace=wrap;html=1;" vertex="1" parent="1">
          <mxGeometry x="764" y="417" width="120" height="60" as="geometry" />
        </mxCell>
        <mxCell id="Uhv4Gsx6fWczVrR9hCtR-60" value="CSP&lt;div&gt;Server&lt;/div&gt;" style="rounded=1;whiteSpace=wrap;html=1;" vertex="1" parent="1">
          <mxGeometry x="764" y="336" width="120" height="60" as="geometry" />
        </mxCell>
        <mxCell id="Uhv4Gsx6fWczVrR9hCtR-63" style="edgeStyle=orthogonalEdgeStyle;shape=connector;rounded=0;orthogonalLoop=1;jettySize=auto;html=1;exitX=0;exitY=0.5;exitDx=0;exitDy=0;entryX=1.013;entryY=0.341;entryDx=0;entryDy=0;entryPerimeter=0;strokeColor=default;align=center;verticalAlign=middle;fontFamily=Helvetica;fontSize=11;fontColor=default;labelBackgroundColor=default;endArrow=classic;startArrow=classic;startFill=1;" edge="1" parent="1" source="Uhv4Gsx6fWczVrR9hCtR-60" target="Uhv4Gsx6fWczVrR9hCtR-47">
          <mxGeometry relative="1" as="geometry" />
        </mxCell>
        <mxCell id="Uhv4Gsx6fWczVrR9hCtR-64" style="edgeStyle=orthogonalEdgeStyle;shape=connector;rounded=0;orthogonalLoop=1;jettySize=auto;html=1;exitX=0;exitY=0.5;exitDx=0;exitDy=0;entryX=1.011;entryY=0.659;entryDx=0;entryDy=0;entryPerimeter=0;strokeColor=default;align=center;verticalAlign=middle;fontFamily=Helvetica;fontSize=11;fontColor=default;labelBackgroundColor=default;endArrow=classic;startArrow=classic;startFill=1;" edge="1" parent="1" source="Uhv4Gsx6fWczVrR9hCtR-55" target="Uhv4Gsx6fWczVrR9hCtR-47">
          <mxGeometry relative="1" as="geometry" />
        </mxCell>
        <mxCell id="Uhv4Gsx6fWczVrR9hCtR-67" value="ZMQ&lt;div&gt;Pub/Sub&lt;/div&gt;" style="edgeLabel;html=1;align=center;verticalAlign=middle;resizable=0;points=[];fontFamily=Helvetica;fontSize=11;fontColor=default;labelBackgroundColor=default;" vertex="1" connectable="0" parent="1">
          <mxGeometry x="722" y="366" as="geometry" />
        </mxCell>
        <mxCell id="Uhv4Gsx6fWczVrR9hCtR-68" value="ZMQ&lt;div&gt;Pub/Sub&lt;/div&gt;" style="edgeLabel;html=1;align=center;verticalAlign=middle;resizable=0;points=[];fontFamily=Helvetica;fontSize=11;fontColor=default;labelBackgroundColor=default;" vertex="1" connectable="0" parent="1">
          <mxGeometry x="719" y="530" as="geometry" />
        </mxCell>
        <mxCell id="Uhv4Gsx6fWczVrR9hCtR-69" value="" style="rounded=1;whiteSpace=wrap;html=1;fontFamily=Helvetica;fontSize=11;labelBackgroundColor=default;dashed=1;dashPattern=12 12;glass=1;shadow=0;fillColor=none;strokeColor=#7EA6E0;fontColor=#ffffff;" vertex="1" parent="1">
          <mxGeometry x="255" y="136" width="704" height="634" as="geometry" />
        </mxCell>
      </root>
    </mxGraphModel>
  </diagram>
</mxfile>
